<?xml version="1.0" standalone="no"?>
<!DOCTYPE svg PUBLIC "-//W3C//DTD SVG 20010904//EN"
 "http://www.w3.org/TR/2001/REC-SVG-20010904/DTD/svg10.dtd">
<svg version="1.0" xmlns="http://www.w3.org/2000/svg"
 width="415.000000pt" height="431.000000pt" viewBox="0 0 415.000000 431.000000"
 preserveAspectRatio="xMidYMid meet">

<g transform="translate(0.000000,431.000000) scale(0.100000,-0.100000)"
fill="#000000" stroke="none">
<path d="M1380 4065 c0 -32 -3 -35 -41 -45 -121 -33 -240 -122 -298 -223 -33
-58 -61 -146 -61 -189 0 -35 18 -40 -223 57 l-182 73 -17 -32 c-10 -17 -30
-69 -45 -116 -25 -77 -28 -99 -27 -225 0 -137 7 -178 49 -277 5 -13 3 -18 -8
-18 -20 0 -27 -43 -27 -161 0 -152 22 -234 108 -401 2 -4 -16 -12 -40 -18
-198 -54 -316 -237 -287 -447 9 -63 24 -100 89 -218 l23 -40 -40 -210 -39
-210 38 -51 c21 -28 38 -54 38 -57 0 -3 -21 -9 -46 -13 -36 -5 -44 -10 -39
-23 13 -30 118 -306 132 -345 24 -68 33 -77 98 -107 l63 -28 172 23 c178 24
190 29 190 74 l0 23 30 -21 c16 -12 56 -26 89 -32 53 -10 66 -9 121 11 42 15
65 19 73 13 8 -7 53 -7 131 -1 65 5 216 13 335 17 190 7 221 11 256 29 67 35
115 105 115 168 0 21 5 25 30 25 l30 0 0 -108 0 -109 268 -7 c305 -8 823 -53
985 -86 96 -20 129 -14 239 42 94 49 104 57 127 101 23 46 24 51 12 111 l-13
63 36 72 36 71 -22 9 c-13 5 -44 17 -70 27 -27 9 -48 19 -48 22 0 3 26 42 59
86 62 86 82 120 80 133 -1 4 5 24 14 43 15 32 15 36 0 47 -15 12 -11 17 10 14
12 -2 8 27 -5 33 -9 3 -8 9 6 20 36 29 4 168 -58 249 -14 19 -26 38 -26 44 0
5 34 106 75 223 41 117 72 217 69 221 -3 5 -10 9 -17 9 -6 0 -82 19 -167 42
l-156 42 43 85 c69 137 93 269 78 424 -6 66 -9 77 -25 77 -19 0 -19 1 -1 43
33 77 46 150 45 257 -1 117 -20 209 -64 307 l-28 62 -198 -79 c-109 -44 -199
-80 -200 -80 -1 0 -7 28 -14 63 -33 174 -155 314 -319 367 -69 22 -71 23 -71
56 l0 34 -232 0 -232 0 -42 -41 -42 -41 -23 41 -23 41 -438 0 -438 0 0 -35z
m871 -90 c19 -24 37 -45 41 -45 3 0 31 21 62 46 l56 45 105 -3 c58 -1 105 -5
105 -9 0 -4 -10 -9 -22 -11 -22 -3 -23 -7 -22 -96 1 -99 11 -125 39 -102 9 7
14 19 11 26 -3 8 0 11 10 7 14 -5 16 -1 17 49 1 15 5 24 10 21 5 -3 7 -14 4
-24 -3 -11 -1 -19 4 -19 5 0 9 7 9 15 0 8 7 15 15 15 8 0 15 5 15 11 0 6 -6 9
-14 6 -9 -4 -16 3 -19 15 -5 16 -3 18 6 9 13 -13 37 -15 37 -2 0 5 -8 11 -17
14 -14 3 -10 8 15 19 18 8 31 16 30 19 -2 2 3 -2 9 -10 7 -8 40 -18 73 -22
155 -22 284 -138 324 -294 20 -75 20 -115 1 -190 -33 -125 -126 -230 -245
-276 -69 -27 -184 -29 -252 -5 -47 16 -48 16 -85 -7 -47 -29 -117 -57 -143
-57 -10 0 -22 -5 -25 -10 -5 -8 38 -167 52 -192 6 -11 -230 -7 -244 4 -8 6
-68 6 -169 -1 -86 -6 -183 -11 -216 -11 -69 0 -69 0 -33 110 14 41 25 77 25
80 0 4 -26 14 -57 24 -32 10 -79 29 -105 43 l-46 25 -69 -17 c-175 -44 -363
46 -446 214 -30 61 -32 72 -32 171 0 100 2 109 34 173 38 76 113 152 183 185
24 12 73 26 111 33 64 12 67 14 67 41 l0 28 379 0 379 0 33 -45z m519 35 c0
-5 -5 -10 -11 -10 -5 0 -7 5 -4 10 3 6 8 10 11 10 2 0 4 -4 4 -10z m-160 -150
c0 -5 -4 -10 -10 -10 -5 0 -10 5 -10 10 0 6 5 10 10 10 6 0 10 -4 10 -10z
m-1774 -304 l141 -57 17 -63 c62 -229 291 -382 521 -347 41 6 78 12 82 13 4 1
34 -10 66 -25 63 -30 61 -22 32 -120 l-12 -41 -105 3 -106 3 -7 -32 c-4 -17
-10 -29 -13 -28 -80 43 -100 45 -308 18 l-91 -12 -12 -116 -12 -115 26 -37
c14 -20 25 -48 25 -63 0 -34 -1 -34 -188 -3 l-144 23 -9 -23 c-23 -61 -82 3
-133 145 -41 115 -55 310 -21 297 7 -2 45 -8 83 -12 l70 -6 -48 52 c-55 60
-101 140 -124 219 -29 98 -18 287 23 393 l10 28 48 -19 c27 -10 112 -44 189
-75z m2808 47 c72 -224 32 -443 -107 -591 l-52 -54 75 7 c41 4 80 8 85 9 6 0
9 -37 8 -99 -2 -146 -43 -263 -130 -372 l-34 -43 -72 0 c-43 -1 -93 -8 -124
-19 -29 -10 -53 -17 -53 -17 0 1 9 30 20 66 11 36 20 65 20 66 0 1 -35 4 -77
8 -42 3 -78 7 -79 9 -2 1 1 45 6 97 5 52 10 120 10 151 l0 56 -37 7 c-21 3
-59 6 -85 6 -36 0 -48 4 -48 15 0 18 -10 18 -155 5 -77 -7 -113 -15 -121 -26
-10 -13 -12 -13 -18 1 -5 13 -16 15 -65 9 l-60 -6 -24 78 -24 79 56 28 c55 28
57 28 141 16 64 -8 101 -8 149 1 100 18 220 77 205 101 -3 5 1 6 9 3 37 -14
158 167 173 259 4 20 12 41 18 45 12 8 357 150 368 151 3 1 13 -20 22 -46z
m-1878 -759 c50 -18 85 -63 92 -120 7 -64 -5 -110 -39 -149 l-31 -35 31 -66
c17 -36 31 -69 31 -73 0 -3 -36 -5 -79 -3 l-80 3 -23 60 -23 60 -6 -56 c-4
-31 -9 -58 -12 -61 -3 -3 -33 -2 -67 2 l-63 7 6 158 c6 141 5 159 -9 159 -12
0 -15 6 -10 23 4 12 11 43 17 70 l11 48 106 -6 c59 -4 125 -13 148 -21z m480
-198 c41 -120 71 -223 68 -227 -3 -5 -38 -9 -78 -9 l-73 0 -7 31 -6 31 -57 -7
c-71 -9 -69 -8 -76 -45 l-6 -30 -76 0 c-41 0 -75 2 -75 5 0 5 56 273 65 313 4
17 1 22 -16 22 -20 0 -21 4 -15 48 12 82 11 81 79 85 34 2 93 3 131 3 l69 -1
73 -219z m658 187 c-3 -16 -20 -118 -37 -228 l-32 -200 -30 -6 c-17 -4 -58 -7
-91 -8 l-62 -1 -28 80 c-31 88 -33 87 -54 -22 -14 -76 -13 -75 -125 -79 l-70
-3 -71 220 -71 219 24 7 c13 4 52 8 86 9 l62 3 30 -85 c32 -94 28 -96 57 36
l13 60 67 3 66 3 21 -55 c11 -30 23 -67 27 -81 10 -39 20 -19 34 67 14 87 9
84 127 87 l63 1 -6 -27z m-1514 2 c58 -30 78 -127 36 -174 -16 -17 -14 -21 17
-52 60 -60 56 -153 -8 -195 -25 -17 -176 -43 -251 -44 l-31 0 -13 123 c-15
155 -23 193 -40 189 -10 -2 -11 12 -5 65 4 37 8 69 10 71 3 3 197 29 233 31
13 0 36 -6 52 -14z m1694 -6 c3 -3 0 -71 -6 -152 -6 -81 -9 -150 -5 -153 3 -3
36 -9 72 -12 51 -4 65 -8 61 -19 -3 -7 -13 -38 -22 -69 l-16 -55 -106 7 c-134
8 -147 10 -145 21 2 13 23 275 23 295 0 10 -7 18 -16 18 -10 0 -14 6 -11 18 3
9 8 39 12 66 l7 48 73 -4 c41 -2 76 -6 79 -9z m-1456 -590 c-3 -8 -7 -3 -11
10 -4 17 -3 21 5 13 5 -5 8 -16 6 -23z m86 -79 c3 -14 3 -19 0 -12 -3 6 -9 10
-14 7 -4 -3 -11 2 -14 11 -4 10 -2 13 6 8 8 -5 9 -1 4 12 -5 12 -4 15 2 9 5
-5 12 -21 16 -35z m93 -242 c-3 -8 -6 -5 -6 6 -1 11 2 17 5 13 3 -3 4 -12 1
-19z m-512 2 c3 -5 1 -10 -4 -10 -6 0 -11 5 -11 10 0 6 2 10 4 10 3 0 8 -4 11
-10z m531 -33 c0 -13 -6 -24 -13 -24 -8 0 -8 7 0 24 13 29 15 29 13 0z m-541
4 c3 -5 1 -12 -4 -15 -5 -3 -11 1 -15 9 -6 16 9 21 19 6z m2529 -278 c-18
-151 -158 -268 -332 -280 -57 -4 -81 -2 -87 7 -6 9 0 10 25 5 21 -5 30 -4 26
3 -3 5 1 13 10 16 15 6 14 9 -5 25 -26 23 -27 31 -2 31 11 0 23 6 28 13 5 8
10 2 14 -18 l7 -30 1 30 c2 44 16 60 49 57 22 -2 37 5 64 32 20 20 42 36 50
36 17 0 70 41 118 92 19 20 36 37 38 37 2 1 0 -25 -4 -56z m-1924 -18 c0 -8
-4 -16 -9 -19 -5 -3 -8 5 -8 19 0 14 3 22 8 19 5 -3 9 -11 9 -19z m1980 -40
c0 -2 -11 -2 -25 -1 -26 1 -32 10 -15 21 6 3 10 16 10 28 1 18 4 15 15 -12 8
-18 15 -35 15 -36z m-1950 -59 c0 -6 -7 -1 -15 10 -8 10 -15 23 -15 28 0 6 7
1 15 -10 8 -10 15 -23 15 -28z m1525 -126 c-3 -5 -13 -10 -21 -10 -8 0 -12 5
-9 10 3 6 13 10 21 10 8 0 12 -4 9 -10z m-1465 -69 c58 -28 90 -117 70 -190
-24 -88 -94 -131 -217 -131 l-63 0 0 115 c0 88 -3 116 -14 122 -12 6 -13 17
-5 55 l10 47 67 3 c72 3 113 -2 152 -21z m491 -26 l-16 -55 -57 0 c-45 0 -58
-3 -58 -15 0 -12 13 -15 61 -15 60 0 61 0 55 -25 -18 -71 -23 -77 -69 -73
l-42 3 -3 -57 -3 -58 -55 0 -55 0 3 123 c2 97 0 121 -10 119 -9 -2 -12 4 -8
15 3 10 8 32 12 48 4 17 8 32 10 35 1 3 58 6 127 7 l124 3 -16 -55z m-796 -75
l7 -120 35 0 35 0 -7 -42 c-4 -24 -11 -48 -16 -54 -5 -6 -40 -12 -78 -13 -82
-2 -81 -5 -81 142 0 80 -3 97 -15 97 -12 0 -14 7 -10 28 4 15 8 37 11 49 4 21
18 26 90 31 20 2 22 -4 29 -118z m933 104 c2 -1 1 -77 -3 -169 l-8 -166 -51 3
-51 3 4 123 c3 92 0 122 -9 122 -12 0 -9 24 9 73 9 23 14 24 58 20 26 -3 50
-7 51 -9z m139 0 c14 -4 36 -29 55 -63 l33 -56 7 54 c5 30 10 56 12 58 1 2 24
0 50 -3 l48 -7 -6 -131 c-4 -72 -9 -148 -12 -168 -6 -37 -7 -38 -50 -38 l-44
0 -42 83 -42 82 -7 -73 c-4 -40 -9 -75 -11 -78 -3 -2 -26 -1 -53 3 l-48 6 7
120 c5 86 4 122 -4 127 -9 5 -9 18 1 49 11 38 15 41 48 41 20 0 46 -3 58 -6z
m-1250 -39 c34 -34 35 -38 31 -90 -3 -38 -11 -62 -26 -78 l-21 -22 30 -49 c17
-26 29 -50 27 -52 -2 -2 -29 -6 -60 -10 l-55 -6 -27 43 -26 44 0 -41 c0 -40
-1 -42 -37 -48 -73 -12 -69 -18 -77 111 -5 83 -11 120 -21 125 -7 5 -12 16
-10 25 17 83 9 79 149 82 l88 1 35 -35z m-378 -3 c104 -52 132 -184 58 -269
-39 -45 -82 -63 -147 -63 -88 0 -152 45 -175 124 -18 60 -8 109 32 157 54 64
160 87 232 51z m2102 0 c7 -7 59 -305 59 -334 0 -10 -14 -12 -55 -10 -44 3
-55 7 -55 21 0 27 -21 41 -62 41 -27 0 -40 -5 -48 -20 -9 -16 -21 -20 -66 -20
l-56 0 7 28 c3 15 22 69 41 120 19 51 32 97 28 103 -3 6 2 29 12 51 l18 40 86
-6 c47 -4 88 -10 91 -14z m215 -17 c8 -2 7 -32 -2 -102 -19 -144 -19 -143 16
-143 35 0 37 -11 14 -65 l-15 -38 -72 7 c-39 4 -73 9 -76 11 -2 3 1 55 7 116
9 92 9 113 -2 124 -8 8 -15 13 -17 12 -3 -1 1 3 7 8 6 6 15 21 19 35 4 14 11
30 16 35 7 9 76 9 105 0z m-2616 -33 c0 -39 -20 -306 -23 -308 -1 -1 -27 -5
-57 -8 l-55 -7 -25 66 c-21 56 -26 63 -31 43 -4 -13 -7 -42 -8 -65 -1 -48 -12
-57 -78 -66 l-42 -5 -37 102 c-20 55 -47 129 -60 163 -25 69 -26 69 45 75 34
3 35 2 60 -62 22 -58 26 -62 32 -40 4 14 8 41 8 60 2 48 9 56 57 64 l41 7 30
-68 31 -68 1 41 c2 98 10 109 84 113 25 1 27 -2 27 -37z m2932 -10 l27 -11
-21 -50 -21 -50 -40 20 c-38 20 -67 20 -67 0 0 -5 22 -22 49 -36 83 -46 98
-110 38 -170 -47 -47 -100 -54 -172 -21 -30 14 -55 28 -55 33 0 4 7 26 16 49
l16 42 32 -19 c33 -20 86 -26 86 -9 0 6 -15 19 -32 28 -55 29 -98 77 -98 109
1 36 21 72 51 90 28 15 147 12 191 -5z"/>
<path d="M2737 3945 c3 -8 9 -12 14 -9 12 7 11 11 -5 17 -10 4 -13 1 -9 -8z"/>
<path d="M2595 3770 c3 -5 8 -10 11 -10 2 0 4 5 4 10 0 6 -5 10 -11 10 -5 0
-7 -4 -4 -10z"/>
<path d="M2769 3748 c-1 -2 -3 -68 -4 -148 -1 -80 -7 -162 -13 -183 -8 -30 -8
-39 3 -43 21 -8 97 16 131 42 38 28 74 98 73 140 -2 87 -70 166 -161 188 -16
3 -29 5 -29 4z m96 -121 c25 -38 27 -79 8 -116 -33 -63 -43 -52 -43 48 0 94 8
109 35 68z"/>
<path d="M1372 3719 c-102 -51 -131 -184 -60 -275 26 -32 91 -63 135 -64 31 0
31 1 22 32 -5 18 -9 99 -9 180 0 147 0 148 -22 148 -13 0 -42 -10 -66 -21z
m18 -159 c0 -98 -11 -114 -36 -53 -18 43 -13 97 12 124 9 11 19 19 21 19 1 0
3 -40 3 -90z"/>
<path d="M1749 3707 c-125 -66 -145 -235 -39 -331 81 -73 189 -73 270 0 77 70
91 184 34 267 -58 84 -174 112 -265 64z"/>
<path d="M2610 3701 c0 -6 4 -13 10 -16 6 -3 7 1 4 9 -7 18 -14 21 -14 7z"/>
<path d="M2370 3614 c-207 -89 -200 -84 -190 -130 21 -94 102 -158 200 -159
71 0 122 25 165 83 59 76 60 172 2 234 l-32 35 -145 -63z"/>
<path d="M2581 3634 c0 -11 3 -14 6 -6 3 7 2 16 -1 19 -3 4 -6 -2 -5 -13z"/>
<path d="M2627 3621 c-4 -17 -3 -21 5 -13 5 5 8 16 6 23 -3 8 -7 3 -11 -10z"/>
<path d="M2600 3566 c0 -9 5 -16 10 -16 6 0 10 4 10 9 0 6 -4 13 -10 16 -5 3
-10 -1 -10 -9z"/>
<path d="M2601 3444 c0 -11 3 -14 6 -6 3 7 2 16 -1 19 -3 4 -6 -2 -5 -13z"/>
<path d="M2078 3311 c-15 -27 -24 -52 -21 -55 11 -11 113 -7 113 5 0 14 -50
99 -58 99 -4 0 -19 -22 -34 -49z"/>
<path d="M2506 3283 c-6 -14 -5 -15 5 -6 7 7 10 15 7 18 -3 3 -9 -2 -12 -12z"/>
<path d="M2231 3103 c-1 -6 -4 -20 -7 -30 -5 -17 -5 -17 6 0 6 10 9 23 6 30
-3 9 -5 9 -5 0z"/>
<path d="M1640 2689 l0 -40 38 3 c30 2 38 7 40 26 5 32 -15 52 -49 52 -27 0
-29 -3 -29 -41z"/>
<path d="M2067 2695 c-3 -11 -9 -39 -12 -62 -7 -43 -7 -43 24 -43 34 0 35 6 6
90 -10 29 -13 32 -18 15z"/>
<path d="M1248 2715 c-3 -3 -3 -17 0 -30 5 -29 46 -35 56 -9 11 28 -35 60 -56
39z"/>
<path d="M1264 2538 c3 -13 6 -31 6 -41 0 -14 6 -18 26 -15 61 7 56 70 -6 76
-30 3 -32 1 -26 -20z"/>
<path d="M3700 1509 c0 -5 5 -7 10 -4 6 3 10 8 10 11 0 2 -4 4 -10 4 -5 0 -10
-5 -10 -11z"/>
<path d="M1880 1155 c0 -69 8 -78 45 -51 24 17 24 69 0 96 -34 37 -45 26 -45
-45z"/>
<path d="M1363 1202 c-11 -7 -7 -62 6 -62 31 1 51 15 51 36 0 13 -4 24 -9 24
-5 0 -15 2 -23 5 -7 3 -18 1 -25 -3z"/>
<path d="M1012 1168 c-59 -16 -69 -90 -17 -124 57 -37 136 27 104 84 -22 38
-49 51 -87 40z"/>
<path d="M3122 1133 c-5 -15 -13 -36 -17 -45 -6 -15 -2 -18 19 -18 25 0 26 2
20 43 -8 53 -10 54 -22 20z"/>
<path d="M1516 650 c-57 -17 -116 -101 -85 -121 8 -5 23 -9 34 -9 11 0 30 -3
43 -6 16 -5 22 -2 22 9 0 15 36 47 52 47 14 0 38 -32 38 -52 0 -23 -75 -100
-137 -142 -60 -40 -66 -49 -58 -96 l7 -40 149 0 149 0 0 50 0 49 -75 3 -75 3
55 43 c76 58 97 94 92 155 -2 27 -12 56 -23 68 -39 44 -117 60 -188 39z"/>
<path d="M1865 647 c-63 -30 -96 -96 -96 -195 0 -154 56 -220 176 -210 102 9
146 68 153 202 3 70 0 87 -20 125 -13 25 -35 54 -50 65 -34 25 -122 31 -163
13z m112 -117 c16 -32 16 -128 0 -160 -18 -37 -69 -40 -85 -5 -18 39 -15 146
4 173 21 31 64 26 81 -8z"/>
<path d="M2222 643 c-34 -17 -65 -53 -76 -91 -8 -25 -4 -27 60 -36 36 -5 42
-3 47 14 7 28 52 47 72 30 18 -15 20 -53 3 -81 -7 -11 -50 -50 -95 -85 -78
-61 -83 -67 -83 -103 l0 -38 61 -7 c70 -7 233 -8 240 -2 2 3 3 25 1 50 l-4 45
-74 3 -74 3 55 43 c68 52 95 94 95 148 0 47 -25 86 -70 109 -38 20 -117 19
-158 -2z"/>
<path d="M2531 562 c-15 -119 -14 -132 7 -134 32 -2 37 -3 48 -10 6 -4 25 -2
42 4 44 17 82 -2 82 -40 0 -53 -52 -71 -89 -31 -17 18 -27 20 -65 15 -25 -4
-48 -11 -51 -16 -10 -16 24 -70 56 -89 44 -27 154 -28 197 -1 67 42 83 164 28
218 -24 24 -34 27 -101 27 -59 0 -74 3 -70 13 3 8 5 20 5 28 0 11 19 14 90 14
l90 0 0 45 0 45 -129 0 -128 0 -12 -88z m24 -32 c3 -5 1 -10 -4 -10 -6 0 -11
5 -11 10 0 6 2 10 4 10 3 0 8 -4 11 -10z m10 -80 c3 -5 1 -10 -4 -10 -6 0 -11
5 -11 10 0 6 2 10 4 10 3 0 8 -4 11 -10z"/>
</g>
</svg>
